<svg fill="none" height="100%" width="100%" viewBox="0 0 1085 1077" xmlns:xlink="http://www.w3.org/1999/xlink" xmlns="http://www.w3.org/2000/svg"><defs><clipPath id="i0"><rect height="35" width="35" y="0" x="0" /></clipPath><g id="i1"><g transform="matrix(0.5,0,0,0.5,1.479,1.511)" id="i2"><g><g transform="translate(32,32)"><g transform="scale(0,0)"><animateTransform repeatCount="indefinite" type="scale" attributeName="transform" dur="0.8s" begin="0s" calcMode="spline" values="0 0; 1 1; 1 1" keyTimes="0; 0.708334; 1" keySplines="0.745 0.008 0.265 0.996; 0 0 1 1" fill="freeze" /><g id="i3" transform="translate(-32,-32)"><path fill="#f77054" d="M41.85,32C41.85,37.44,37.44,41.85,32,41.85C26.56,41.85,22.15,37.44,22.15,32C22.15,26.56,26.56,22.15,32,22.15C37.44,22.15,41.85,26.56,41.85,32C41.85,32,41.85,32,41.85,32ZM32,44.31C38.8,44.31,44.31,38.8,44.31,32C44.31,25.2,38.8,19.69,32,19.69C25.2,19.69,19.69,25.2,19.69,32C19.69,38.8,25.2,44.31,32,44.31C32,44.31,32,44.31,32,44.31Z" /></g></g></g></g><g><g transform="translate(32,32)"><g transform="scale(1,1)"><animateTransform repeatCount="indefinite" type="scale" attributeName="transform" dur="0.8s" begin="0s" calcMode="spline" values="1 1; 1.002 1.002; 1.007 1.007; 1.017 1.017; 1.033 1.033; 1.058 1.058; 1.098 1.098; 1.162 1.162; 1.275 1.275; 1.444 1.444; 1.563 1.563; 1.63 1.63; 1.67 1.67; 1.696 1.696; 1.713 1.713; 1.723 1.723; 1.728 1.728; 1.73 1.73; 1.73 1.73" keyTimes="0; 0.041667; 0.083333; 0.125; 0.166667; 0.208334; 0.25; 0.291667; 0.333333; 0.375; 0.416667; 0.458334; 0.5; 0.541667; 0.583333; 0.625; 0.666667; 0.708334; 1" keySplines="0 0 1 1; 0 0 1 1; 0 0 1 1; 0 0 1 1; 0 0 1 1; 0 0 1 1; 0 0 1 1; 0 0 1 1; 0 0 1 1; 0 0 1 1; 0 0 1 1; 0 0 1 1; 0 0 1 1; 0 0 1 1; 0 0 1 1; 0 0 1 1; 0 0 1 1; 0 0 1 1" fill="freeze" /><g id="i4" transform="translate(-32,-32)"><path fill="#f77054" d="M41.85,32C41.85,37.44,37.44,41.85,32,41.85C26.56,41.85,22.15,37.44,22.15,32C22.15,26.56,26.56,22.15,32,22.15C37.44,22.15,41.85,26.56,41.85,32C41.85,32,41.85,32,41.85,32ZM32,44.31C38.8,44.31,44.31,38.8,44.31,32C44.31,25.2,38.8,19.69,32,19.69C25.2,19.69,19.69,25.2,19.69,32C19.69,38.8,25.2,44.31,32,44.31C32,44.31,32,44.31,32,44.31Z" /></g></g></g></g><g><g transform="translate(32,32)"><g transform="scale(1,1)"><animateTransform repeatCount="indefinite" type="scale" attributeName="transform" dur="0.8s" begin="0s" calcMode="spline" values="1 1; 1.002 1.002; 1.008 1.008; 1.019 1.019; 1.038 1.038; 1.067 1.067; 1.113 1.113; 1.191 1.191; 1.31 1.31; 1.413 1.413; 1.47 1.47; 1.502 1.502; 1.519 1.519; 1.528 1.528; 1.53 1.53; 1.529 1.529; 1.526 1.526; 1.515 1.515; 1.511 1.511; 1.51 1.51; 1.51 1.51" keyTimes="0; 0.041667; 0.083333; 0.125; 0.166666; 0.208333; 0.249999; 0.291666; 0.333333; 0.375; 0.416667; 0.458333; 0.5; 0.541667; 0.583333; 0.625; 0.666666; 0.708333; 0.749999; 0.791666; 1" keySplines="0 0 1 1; 0 0 1 1; 0 0 1 1; 0 0 1 1; 0 0 1 1; 0 0 1 1; 0 0 1 1; 0 0 1 1; 0 0 1 1; 0 0 1 1; 0 0 1 1; 0 0 1 1; 0 0 1 1; 0 0 1 1; 0 0 1 1; 0 0 1 1; 0 0 1 1; 0 0 1 1; 0 0 1 1; 0 0 1 1" fill="freeze" /><g id="i5" transform="translate(-32,-32)"><path fill="#f77054" d="M32,49.23C41.52,49.23,49.23,41.52,49.23,32C49.23,22.48,41.52,14.77,32,14.77C22.48,14.77,14.77,22.48,14.77,32C14.77,41.52,22.48,49.23,32,49.23C32,49.23,32,49.23,32,49.23ZM53.33,32C53.33,43.78,43.78,53.33,32,53.33C20.22,53.33,10.67,43.78,10.67,32C10.67,20.22,20.22,10.67,32,10.67C43.78,10.67,53.33,20.22,53.33,32"><animate repeatCount="indefinite" attributeName="d" dur="0.8s" begin="0s" calcMode="spline" values="M32,49.23C41.52,49.23,49.23,41.52,49.23,32C49.23,22.48,41.52,14.77,32,14.77C22.48,14.77,14.77,22.48,14.77,32C14.77,41.52,22.48,49.23,32,49.23C32,49.23,32,49.23,32,49.23ZM53.33,32C53.33,43.78,43.78,53.33,32,53.33C20.22,53.33,10.67,43.78,10.67,32C10.67,20.22,20.22,10.67,32,10.67C43.78,10.67,53.33,20.22,53.33,32; M32,49.23C41.52,49.23,49.23,41.52,49.23,32C49.23,22.48,41.52,14.77,32,14.77C22.48,14.77,14.77,22.48,14.77,32C14.77,41.52,22.48,49.23,32,49.23C32,49.23,32,49.23,32,49.23ZM53.33,32C53.33,43.78,43.78,53.33,32,53.33C20.22,53.33,10.67,43.78,10.67,32C10.67,20.22,20.22,10.67,32,10.67C43.78,10.67,53.33,20.22,53.33,32; M32.093,49.624C41.613,49.624,49.561,41.496,49.561,31.976C49.561,22.456,41.565,14.512,32.045,14.512C22.525,14.512,14.291,22.361,14.291,31.881C14.291,41.401,22.531,49.602,32.051,49.602C32.03,49.645,32.051,49.602,32.093,49.624ZM53.232,31.977C53.232,43.757,43.8,53.172,32.02,53.172C20.24,53.172,10.823,43.865,10.823,32.085C10.823,20.305,20.212,10.801,31.992,10.801C43.772,10.801,53.232,20.197,53.232,31.977Z; M32.093,49.624C41.613,49.624,49.561,41.496,49.561,31.976C49.561,22.456,41.565,14.512,32.045,14.512C22.525,14.512,14.291,22.361,14.291,31.881C14.291,41.401,22.531,49.602,32.051,49.602C32.03,49.645,32.051,49.602,32.093,49.624ZM53.232,31.977C53.232,43.757,43.8,53.172,32.02,53.172C20.24,53.172,10.823,43.865,10.823,32.085C10.823,20.305,20.212,10.801,31.992,10.801C43.772,10.801,53.232,20.197,53.232,31.977Z" keyTimes="0; 0.583333; 0.791667; 1" keySplines="0 0 1 1; 0 0 1 1; 0 0 1 1" fill="freeze" /></path></g></g></g></g><g id="i6" transform="matrix(1,0,0,1,0,0)"><path fill="#f77054" d="M32,58.26C46.5,58.26,58.26,46.5,58.26,32C58.26,17.5,46.5,5.74,32,5.74C17.5,5.74,5.74,17.5,5.74,32C5.74,46.5,17.5,58.26,32,58.26C32,58.26,32,58.26,32,58.26ZM64,32C64,49.67,49.67,64,32,64C14.33,64,0,49.67,0,32C0,14.33,14.33,0,32,0C49.67,0,64,14.33,64,32C64,32,64,32,64,32Z" /></g></g></g></defs><g transform="matrix(1,0,0,1,30.657,26.714)" id="i2"><g id="i3" transform="matrix(1,0,0,1,0,0)"><path fill="#f2f0e3" d="M225,0C225,0,799,0,799,0C923.26,0,1024,100.74,1024,225C1024,225,1024,799,1024,799C1024,923.26,923.26,1024,799,1024C799,1024,225,1024,225,1024C100.74,1024,0,923.26,0,799C0,799,0,225,0,225C0,100.74,100.74,0,225,0C225,0,225,0,225,0Z" /></g></g><g transform="matrix(23.3,0,0,23.3,134.907,130.964)" id="i7"><g clip-path="url(#i0)"><g transform="matrix(0.5,0,0,0.5,1.479,1.511)"><g><g transform="translate(32,32)"><g transform="scale(0,0)"><animateTransform repeatCount="indefinite" type="scale" attributeName="transform" dur="0.8s" begin="0s" calcMode="spline" values="0 0; 1 1; 1 1" keyTimes="0; 0.708334; 1" keySplines="0.745 0.008 0.265 0.996; 0 0 1 1" fill="freeze" /><g transform="translate(-32,-32)"><path fill="#f77054" d="M41.85,32C41.85,37.44,37.44,41.85,32,41.85C26.56,41.85,22.15,37.44,22.15,32C22.15,26.56,26.56,22.15,32,22.15C37.44,22.15,41.85,26.56,41.85,32C41.85,32,41.85,32,41.85,32ZM32,44.31C38.8,44.31,44.31,38.8,44.31,32C44.31,25.2,38.8,19.69,32,19.69C25.2,19.69,19.69,25.2,19.69,32C19.69,38.8,25.2,44.31,32,44.31C32,44.31,32,44.31,32,44.31Z" /></g></g></g></g><g><g transform="translate(32,32)"><g transform="scale(1,1)"><animateTransform repeatCount="indefinite" type="scale" attributeName="transform" dur="0.8s" begin="0s" calcMode="spline" values="1 1; 1.002 1.002; 1.007 1.007; 1.017 1.017; 1.033 1.033; 1.058 1.058; 1.098 1.098; 1.162 1.162; 1.275 1.275; 1.444 1.444; 1.563 1.563; 1.63 1.63; 1.67 1.67; 1.696 1.696; 1.713 1.713; 1.723 1.723; 1.728 1.728; 1.73 1.73; 1.73 1.73" keyTimes="0; 0.041667; 0.083333; 0.125; 0.166667; 0.208334; 0.25; 0.291667; 0.333333; 0.375; 0.416667; 0.458334; 0.5; 0.541667; 0.583333; 0.625; 0.666667; 0.708334; 1" keySplines="0 0 1 1; 0 0 1 1; 0 0 1 1; 0 0 1 1; 0 0 1 1; 0 0 1 1; 0 0 1 1; 0 0 1 1; 0 0 1 1; 0 0 1 1; 0 0 1 1; 0 0 1 1; 0 0 1 1; 0 0 1 1; 0 0 1 1; 0 0 1 1; 0 0 1 1; 0 0 1 1" fill="freeze" /><g transform="translate(-32,-32)"><path fill="#f77054" d="M41.85,32C41.85,37.44,37.44,41.85,32,41.85C26.56,41.85,22.15,37.44,22.15,32C22.15,26.56,26.56,22.15,32,22.15C37.44,22.15,41.85,26.56,41.85,32C41.85,32,41.85,32,41.85,32ZM32,44.31C38.8,44.31,44.31,38.8,44.31,32C44.31,25.2,38.8,19.69,32,19.69C25.2,19.69,19.69,25.2,19.69,32C19.69,38.8,25.2,44.31,32,44.31C32,44.31,32,44.31,32,44.31Z" /></g></g></g></g><g><g transform="translate(32,32)"><g transform="scale(1,1)"><animateTransform repeatCount="indefinite" type="scale" attributeName="transform" dur="0.8s" begin="0s" calcMode="spline" values="1 1; 1.002 1.002; 1.008 1.008; 1.019 1.019; 1.038 1.038; 1.067 1.067; 1.113 1.113; 1.191 1.191; 1.31 1.31; 1.413 1.413; 1.47 1.47; 1.502 1.502; 1.519 1.519; 1.528 1.528; 1.53 1.53; 1.529 1.529; 1.526 1.526; 1.515 1.515; 1.511 1.511; 1.51 1.51; 1.51 1.51" keyTimes="0; 0.041667; 0.083333; 0.125; 0.166666; 0.208333; 0.249999; 0.291666; 0.333333; 0.375; 0.416667; 0.458333; 0.5; 0.541667; 0.583333; 0.625; 0.666666; 0.708333; 0.749999; 0.791666; 1" keySplines="0 0 1 1; 0 0 1 1; 0 0 1 1; 0 0 1 1; 0 0 1 1; 0 0 1 1; 0 0 1 1; 0 0 1 1; 0 0 1 1; 0 0 1 1; 0 0 1 1; 0 0 1 1; 0 0 1 1; 0 0 1 1; 0 0 1 1; 0 0 1 1; 0 0 1 1; 0 0 1 1; 0 0 1 1; 0 0 1 1" fill="freeze" /><g transform="translate(-32,-32)"><path fill="#f77054" d="M32,49.23C41.52,49.23,49.23,41.52,49.23,32C49.23,22.48,41.52,14.77,32,14.77C22.48,14.77,14.77,22.48,14.77,32C14.77,41.52,22.48,49.23,32,49.23C32,49.23,32,49.23,32,49.23ZM53.33,32C53.33,43.78,43.78,53.33,32,53.33C20.22,53.33,10.67,43.78,10.67,32C10.67,20.22,20.22,10.67,32,10.67C43.78,10.67,53.33,20.22,53.33,32"><animate repeatCount="indefinite" attributeName="d" dur="0.8s" begin="0s" calcMode="spline" values="M32,49.23C41.52,49.23,49.23,41.52,49.23,32C49.23,22.48,41.52,14.77,32,14.77C22.48,14.77,14.77,22.48,14.77,32C14.77,41.52,22.48,49.23,32,49.23C32,49.23,32,49.23,32,49.23ZM53.33,32C53.33,43.78,43.78,53.33,32,53.33C20.22,53.33,10.67,43.78,10.67,32C10.67,20.22,20.22,10.67,32,10.67C43.78,10.67,53.33,20.22,53.33,32; M32,49.23C41.52,49.23,49.23,41.52,49.23,32C49.23,22.48,41.52,14.77,32,14.77C22.48,14.77,14.77,22.48,14.77,32C14.77,41.52,22.48,49.23,32,49.23C32,49.23,32,49.23,32,49.23ZM53.33,32C53.33,43.78,43.78,53.33,32,53.33C20.22,53.33,10.67,43.78,10.67,32C10.67,20.22,20.22,10.67,32,10.67C43.78,10.67,53.33,20.22,53.33,32; M32.093,49.624C41.613,49.624,49.561,41.496,49.561,31.976C49.561,22.456,41.565,14.512,32.045,14.512C22.525,14.512,14.291,22.361,14.291,31.881C14.291,41.401,22.531,49.602,32.051,49.602C32.03,49.645,32.051,49.602,32.093,49.624ZM53.232,31.977C53.232,43.757,43.8,53.172,32.02,53.172C20.24,53.172,10.823,43.865,10.823,32.085C10.823,20.305,20.212,10.801,31.992,10.801C43.772,10.801,53.232,20.197,53.232,31.977Z; M32.093,49.624C41.613,49.624,49.561,41.496,49.561,31.976C49.561,22.456,41.565,14.512,32.045,14.512C22.525,14.512,14.291,22.361,14.291,31.881C14.291,41.401,22.531,49.602,32.051,49.602C32.03,49.645,32.051,49.602,32.093,49.624ZM53.232,31.977C53.232,43.757,43.8,53.172,32.02,53.172C20.24,53.172,10.823,43.865,10.823,32.085C10.823,20.305,20.212,10.801,31.992,10.801C43.772,10.801,53.232,20.197,53.232,31.977Z" keyTimes="0; 0.583333; 0.791667; 1" keySplines="0 0 1 1; 0 0 1 1; 0 0 1 1" fill="freeze" /></path></g></g></g></g><g transform="matrix(1,0,0,1,0,0)"><path fill="#f77054" d="M32,58.26C46.5,58.26,58.26,46.5,58.26,32C58.26,17.5,46.5,5.74,32,5.74C17.5,5.74,5.74,17.5,5.74,32C5.74,46.5,17.5,58.26,32,58.26C32,58.26,32,58.26,32,58.26ZM64,32C64,49.67,49.67,64,32,64C14.33,64,0,49.67,0,32C0,14.33,14.33,0,32,0C49.67,0,64,14.33,64,32C64,32,64,32,64,32Z" /></g></g></g></g></svg>