<svg width="408" height="96" viewBox="0 0 408 96" fill="none" xmlns="http://www.w3.org/2000/svg">
<path d="M214.062 57.7319H220.318V64.7607H213.28V58.5127H189.038V70.2275H214.062V76.4756H220.318V89.752H214.062V96H188.256V89.752H181.999V82.7231H189.038V88.9712H213.28V77.2563H188.256V71.0083H181.999V57.7319H188.256V51.4839H214.062V57.7319Z" fill="#2e2e2e"/>
<path d="M246.906 57.7319H252.38V51.4839H265.675V57.7319H271.93V96H264.892V58.5127H253.162V96H246.124V58.5127H234.394V96H227.356V57.7319H233.612V51.4839H246.906V57.7319Z" fill="#2e2e2e"/>
<path d="M292.263 57.7319H297.737V51.4839H311.031V58.5127H298.519V88.9712H311.031V96H297.737V89.752H292.263V96H278.969V88.9712H291.481V58.5127H278.969V51.4839H292.263V57.7319Z" fill="#2e2e2e"/>
<path d="M337.619 57.7319H343.093V51.4839H362.644V58.5127H343.876V96H336.837V58.5127H318.069V51.4839H337.619V57.7319Z" fill="#2e2e2e"/>
<path d="M376.719 70.2275H400.962V51.4839H408V96H400.962V77.2563H376.719V96H369.682V51.4839H376.719V70.2275Z" fill="#2e2e2e"/>
<path d="M144 95.937H48.0007L47.9841 94.6992C47.327 68.7964 26.0955 48 0 48V0.0629883H144V95.937Z" fill="#2e2e2e"/>
<path fill-rule="evenodd" clip-rule="evenodd" d="M214.062 6.24805H220.318V19.5244H214.062V24.9917H220.318V38.2681H214.062V44.5161H181.999V24.9917H188.256V19.5244H181.999V0H214.062V6.24805ZM189.038 37.4873H213.28V25.7725H189.038V37.4873ZM189.038 18.7437H213.28V7.02881H189.038V18.7437Z" fill="#2e2e2e"/>
<path d="M237.516 37.4873H262.54V44.5161H230.478V0H237.516V37.4873Z" fill="#2e2e2e"/>
<path fill-rule="evenodd" clip-rule="evenodd" d="M304.763 6.24805H311.019V44.5161H303.981V25.7725H279.739V44.5161H272.701V6.24805H278.957V0H304.763V6.24805ZM279.739 18.7437H303.981V7.02881H279.739V18.7437Z" fill="#2e2e2e"/>
<path d="M353.241 6.24805H359.498V13.2769H352.46V7.02881H328.217V37.4873H352.46V31.2393H359.498V38.2681H353.241V44.5161H327.435V38.2681H321.179V6.24805H327.435V0H353.241V6.24805Z" fill="#2e2e2e"/>
<path d="M376.696 18.7437H394.682V12.4956H400.938V0H407.976V13.2769H401.72V19.5244H395.464V24.9917H401.72V31.2393H407.976V44.5161H400.938V32.0205H394.682V25.7725H376.696V44.5161H369.658V0H376.696V18.7437Z" fill="#2e2e2e"/>
</svg>
